g integralspace
v -6.2 -9.2 -3
v -6.2 -0.01 -3
v -6 -9 -3
v -6 -0.01 -3
v -5.8 -8.8 -3
v -5.8 -0.01 -3
v -5.6 -8.6 -3
v -5.6 -0.01 -3
v -5.4 -8.4 -3
v -5.4 -0.01 -3
v -5.2 -8.2 -3
v -5.2 -0.01 -3
v -5 -8 -3
v -5 -0.01 -3
v -4.8 -7.8 -3
v -4.8 -0.01 -3
v -4.6 -7.6 -3
v -4.6 -0.01 -3
v -4.4 -7.4 -3
v -4.4 -0.01 -3
v -4.2 -7.2 -3
v -4.2 -0.01 -3
v -4 -7 -3
v -4 -0.01 -3
v -3.8 -6.8 -3
v -3.8 -0.01 -3
v -3.6 -6.6 -3
v -3.6 -0.01 -3
v -3.4 -6.4 -3
v -3.4 -0.01 -3
v -3.2 -6.2 -3
v -3.2 -0.01 -3
v -3 -6 -3
v -3 -0.01 -3
v -2.8 -5.8 -3
v -2.8 -0.01 -3
v -2.6 -5.6 -3
v -2.6 -0.01 -3
v -2.4 -5.4 -3
v -2.4 -0.01 -3
v -2.2 -5.2 -3
v -2.2 -0.01 -3
v -2 -5 -3
v -2 -0.01 -3
v -1.8 -4.8 -3
v -1.8 -0.01 -3
v -1.6 -4.6 -3
v -1.6 -0.01 -3
v -1.4 -4.4 -3
v -1.4 -0.01 -3
v -1.2 -4.2 -3
v -1.2 -0.01 -3
v -1 -4 -3
v -1 -0.01 -3
v -0.8 -3.8 -3
v -0.8 -0.01 -3
v -0.6 -3.6 -3
v -0.6 -0.01 -3
v -0.4 -3.4 -3
v -0.4 -0.01 -3
v -0.2 -3.2 -3
v -0.2 -0.01 -3
v 0 -3 -3
v 0 -0.01 -3
v 0.2 -2.8 -3
v 0.2 -0.01 -3
v 0.4 -2.6 -3
v 0.4 -0.01 -3
v 0.6 -2.4 -3
v 0.6 -0.01 -3
v 0.8 -2.2 -3
v 0.8 -0.01 -3
v 1 -2 -3
v 1 -0.01 -3
v 1.2 -1.8 -3
v 1.2 -0.01 -3
v 1.4 -1.6 -3
v 1.4 -0.01 -3
v 1.6 -1.4 -3
v 1.6 -0.01 -3
v 1.8 -1.2 -3
v 1.8 -0.01 -3
v 2 -1 -3
v 2 -0.01 -3
v 2.2 -0.8 -3
v 2.2 -0.01 -3
v 2.4 -0.6 -3
v 2.4 -0.01 -3
v 2.6 -0.4 -3
v 2.6 -0.01 -3
v 2.8 -0.2 -3
v 2.8 -0.01 -3
v 3 0 -3
v 3 -0.01 -3
v -6.2 -9 -2.8
v -6.2 -0.01 -2.8
v 3 0.2 -2.8
v 3 0.01 -2.8
v -6.2 -8.8 -2.6
v -6.2 -0.01 -2.6
v 3 0.4 -2.6
v 3 0.01 -2.6
v -6.2 -8.6 -2.4
v -6.2 -0.01 -2.4
v 3 0.6 -2.4
v 3 0.01 -2.4
v -6.2 -8.4 -2.2
v -6.2 -0.01 -2.2
v 3 0.8 -2.2
v 3 0.01 -2.2
v -6.2 -8.2 -2
v -6.2 -0.01 -2
v 3 1 -2
v 3 0.01 -2
v -6.2 -8 -1.8
v -6.2 -0.01 -1.8
v 3 1.2 -1.8
v 3 0.01 -1.8
v -6.2 -7.8 -1.6
v -6.2 -0.01 -1.6
v 3 1.4 -1.6
v 3 0.01 -1.6
v -6.2 -7.6 -1.4
v -6.2 -0.01 -1.4
v 3 1.6 -1.4
v 3 0.01 -1.4
v -6.2 -7.4 -1.2
v -6.2 -0.01 -1.2
v 3 1.8 -1.2
v 3 0.01 -1.2
v -6.2 -7.2 -1
v -6.2 -0.01 -1
v 3 2 -1
v 3 0.01 -1
v -6.2 -7 -0.8
v -6.2 -0.01 -0.8
v 3 2.2 -0.8
v 3 0.01 -0.8
v -6.2 -6.8 -0.6
v -6.2 -0.01 -0.6
v 3 2.4 -0.6
v 3 0.01 -0.6
v -6.2 -6.6 -0.4
v -6.2 -0.01 -0.4
v 3 2.6 -0.4
v 3 0.01 -0.4
v -6.2 -6.4 -0.2
v -6.2 -0.01 -0.2
v 3 2.8 -0.2
v 3 0.01 -0.2
v -6.2 -6.2 0
v -6.2 -0.01 0
v 3 3 0
v 3 0.01 0
v -6.2 -6 0.2
v -6.2 -0.01 0.2
v 3 3.2 0.2
v 3 0.01 0.2
v -6.2 -5.8 0.4
v -6.2 -0.01 0.4
v 3 3.4 0.4
v 3 0.01 0.4
v -6.2 -5.6 0.6
v -6.2 -0.01 0.6
v 3 3.6 0.6
v 3 0.01 0.6
v -6.2 -5.4 0.8
v -6.2 -0.01 0.8
v 3 3.8 0.8
v 3 0.01 0.8
v -6.2 -5.2 1
v -6.2 -0.01 1
v 3 4 1
v 3 0.01 1
v -6.2 -5 1.2
v -6.2 -0.01 1.2
v 3 4.2 1.2
v 3 0.01 1.2
v -6.2 -4.8 1.4
v -6.2 -0.01 1.4
v 3 4.4 1.4
v 3 0.01 1.4
v -6.2 -4.6 1.6
v -6.2 -0.01 1.6
v -6 -4.4 1.6
v -6 -0.01 1.6
v -5.8 -4.2 1.6
v -5.8 -0.01 1.6
v -5.6 -4 1.6
v -5.6 -0.01 1.6
v -5.4 -3.8 1.6
v -5.4 -0.01 1.6
v -5.2 -3.6 1.6
v -5.2 -0.01 1.6
v -5 -3.4 1.6
v -5 -0.01 1.6
v -4.8 -3.2 1.6
v -4.8 -0.01 1.6
v -4.6 -3 1.6
v -4.6 -0.01 1.6
v -4.4 -2.8 1.6
v -4.4 -0.01 1.6
v -4.2 -2.6 1.6
v -4.2 -0.01 1.6
v -4 -2.4 1.6
v -4 -0.01 1.6
v -3.8 -2.2 1.6
v -3.8 -0.01 1.6
v -3.6 -2 1.6
v -3.6 -0.01 1.6
v -3.4 -1.8 1.6
v -3.4 -0.01 1.6
v -3.2 -1.6 1.6
v -3.2 -0.01 1.6
v -3 -1.4 1.6
v -3 -0.01 1.6
v -2.8 -1.2 1.6
v -2.8 -0.01 1.6
v -2.6 -1 1.6
v -2.6 -0.01 1.6
v -2.4 -0.8 1.6
v -2.4 -0.01 1.6
v -2.2 -0.6 1.6
v -2.2 -0.01 1.6
v -2 -0.4 1.6
v -2 -0.01 1.6
v -1.8 -0.2 1.6
v -1.8 -0.01 1.6
v -1.6 1.776357E-15 1.6
v -1.6 0.01 1.6
v -1.4 0.2 1.6
v -1.4 0.01 1.6
v -1.2 0.4 1.6
v -1.2 0.01 1.6
v -1 0.6 1.6
v -1 0.01 1.6
v -0.8 0.8 1.6
v -0.8 0.01 1.6
v -0.6 1 1.6
v -0.6 0.01 1.6
v -0.4 1.2 1.6
v -0.4 0.01 1.6
v -0.2 1.4 1.6
v -0.2 0.01 1.6
v 0 1.6 1.6
v 0 0.01 1.6
v 0.2 1.8 1.6
v 0.2 0.01 1.6
v 0.4 2 1.6
v 0.4 0.01 1.6
v 0.6 2.2 1.6
v 0.6 0.01 1.6
v 0.8 2.4 1.6
v 0.8 0.01 1.6
v 1 2.6 1.6
v 1 0.01 1.6
v 1.2 2.8 1.6
v 1.2 0.01 1.6
v 1.4 3 1.6
v 1.4 0.01 1.6
v 1.6 3.2 1.6
v 1.6 0.01 1.6
v 1.8 3.4 1.6
v 1.8 0.01 1.6
v 2 3.6 1.6
v 2 0.01 1.6
v 2.2 3.8 1.6
v 2.2 0.01 1.6
v 2.4 4 1.6
v 2.4 0.01 1.6
v 2.6 4.2 1.6
v 2.6 0.01 1.6
v 2.8 4.4 1.6
v 2.8 0.01 1.6
v 3 4.6 1.6
v 3 0.01 1.6

vn -0.7071072 0 -0.7071064
vn -0.6960543 0.1761191 -0.6960534
vn 0 0 -1
vn 0 0.4582031 -0.8888475
vn 0 0 -1
vn 0 0.4664425 -0.8845514
vn 0 0 -1
vn 0 0.4749413 -0.8800175
vn 0 0 -1
vn 0 0.483707 -0.87523
vn 0 0 -1
vn 0 0.4927516 -0.87017
vn 0 0 -0.9999999
vn 0 0.5020829 -0.8648195
vn 0 0 -1
vn 0 0.5117117 -0.8591572
vn 0 0 -1
vn 0 0.5216491 -0.8531601
vn 0 0 -1
vn 0 0.5319028 -0.8468055
vn 0 0 -1
vn 0 0.5424853 -0.8400654
vn 0 0 -1
vn 0 0.5534038 -0.8329132
vn 0 0 -1
vn 0 0.5646693 -0.8253173
vn 0 0 -0.9999999
vn 0 0.5762898 -0.8172454
vn 0 0 -1
vn 0 0.5882729 -0.8086624
vn 0 0 -0.9999999
vn 0 0.6006266 -0.7995297
vn 0 0 -1
vn 0 0.6133559 -0.7898067
vn 0 0 -1
vn 0 0.626465 -0.7794495
vn 0 0 -1
vn 0 0.6399564 -0.7684111
vn 0 0 -0.9999999
vn 0 0.6538294 -0.756642
vn 0 0 -1
vn 0 0.6680817 -0.744088
vn 0 0 -1
vn 0 0.682706 -0.7306933
vn 0 0 -0.9999999
vn 0 0.6976919 -0.716398
vn 0 0 -1
vn -0.02372636 0.7117907 -0.7019908
vn 0 0 -1
vn 0 0.7271009 -0.6865306
vn 0 0 -1
vn 0 0.7430263 -0.6692622
vn 0 0 -1
vn 0 0.7592178 -0.6508366
vn 0 0 -1
vn 0 0.7756324 -0.6311849
vn 0 0 -1
vn 0 0.7922184 -0.6102378
vn 0 0 -1
vn 0 0.8089135 -0.5879276
vn 0 0 -1
vn 0 0.8256446 -0.5641904
vn 0 0 -1
vn 0 0.8423269 -0.5389671
vn 0 0 -1
vn 0 0.8588627 -0.5122058
vn 0 0 -1
vn 0 0.8751426 -0.483865
vn 0 0 -1
vn 0 0.8910444 -0.4539161
vn 0 0 -1
vn 0 0.9064347 -0.422346
vn 0 0 -1
vn 0 0.9211698 -0.3891608
vn 0 0 -1
vn 0 0.9350982 -0.3543886
vn 0 0 -1
vn 0 0.9480632 -0.3180822
vn 0 0 -1
vn 0 0.9599065 -0.2803205
vn 0 0 -1
vn 0 0.9704726 -0.2412117
vn 0 0 -1
vn 0 0.9796134 -0.2008917
vn 0 0 -1
vn 0 0.9871939 -0.1595248
vn 0 0 -1
vn 0 0.9930965 -0.1173005
vn 0 0 -1
vn 0 0.9972262 -0.07443067
vn 0 0 -1
vn 0 0.9995149 -0.03114431
vn 0.05547001 0 -0.9984603
vn 0.02173388 0.9997585 -0.003260082
vn -1 0 0
vn -1 0 0
vn 1 0 0
vn 1 0 0
vn -1 0 0
vn -1 0 0
vn 1 0 0
vn 1 0 0
vn -1 0 0
vn -1 0 0
vn 1 0 0
vn 1 0 0
vn -1 0 0
vn -1 0 0
vn 1 0 0
vn 1 0 0
vn -1 0 0
vn -1 0 0
vn 1 0 0
vn 1 0 0
vn -1 0 0
vn -1 0 0
vn 0.9999999 0 0
vn 0.9999999 0 0
vn -1 0 0
vn -1 0 0
vn 1 0 0
vn 1 0 0
vn -1 0 0
vn -1 0 0
vn 1 0 0
vn 1 0 0
vn -1 0 0
vn -1 0 0
vn 1 0 0
vn 1 0 0
vn -1 0 0
vn -1 0 0
vn 1 0 0
vn 1 0 0
vn -1 0 0
vn -1 0 0
vn 1 0 0
vn 1 0 0
vn -1 0 0
vn -1 0 0
vn 1 0 0
vn 1 0 0
vn -1 0 0
vn -1 0 0
vn 1 0 0
vn 1 0 0
vn -0.9999999 0 0
vn -1 0 0
vn 1 0 0
vn 1 0 0
vn -1 0 0
vn -0.9999999 0 0
vn 1 0 0
vn 1 0 0
vn -1 0 0
vn -1 0 0
vn 1 0 0
vn 1 0 0
vn -1 0 0
vn -1 0 0
vn 1 0 0
vn 1 0 0
vn -1 0 0
vn -1 0 0
vn 1 0 0
vn 1 0 0
vn -0.9999999 0 0
vn -0.9999999 0 0
vn 1 0 0
vn 1 0 0
vn -1 0 0
vn -1 0 0
vn 1 0 0
vn 1 0 0
vn -1 0 0
vn -1 0 0
vn 1 0 0
vn 1 0 0
vn -0.9999999 0 0
vn -0.9999999 0 0
vn 1 0 0
vn 1 0 0
vn -0.898225 0 0.439536
vn -0.3362406 0.6739456 0.6578295
vn 0 0 1
vn 0 0.7286804 0.6848539
vn 0 0 1
vn 0 0.7446342 0.6674728
vn 0 0 1
vn 0 0.76085 0.6489278
vn 0 0 1
vn 0 0.7772841 0.6291496
vn 0 0 1
vn 0 0.793884 0.6080692
vn 0 0 1
vn 0 0.8105863 0.5856192
vn 0 0 1
vn 0 0.8273166 0.561736
vn 0 0 0.9999999
vn 0 0.8439887 0.536361
vn 0 0 1
vn 0 0.8605042 0.5094435
vn 0 0 1
vn 0 0.876752 0.4809429
vn 0 0 1
vn 0 0.8926088 0.4508321
vn 0 0 1
vn 0 0.9079401 0.4190999
vn 0 0 1
vn 0 0.9226015 0.3857544
vn 0 0 1
vn 0 0.9364407 0.350826
vn 0 0 1
vn 0 0.9493006 0.3143698
vn 0 0 1
vn 0 0.9610231 0.2764682
vn 0 0 1
vn 0 0.9714531 0.2372317
vn 0 0 1
vn 0 0.9804438 0.1967992
vn 0 0 1
vn 0 0.9878615 0.1553376
vn 0 0 1
vn 0 0.9935906 0.1130389
vn 0 0 1
vn 0 0.9975388 0.07011686
vn 0 0 1
vn -0.03330288 0.9990863 0.0267871
vn 0 0 1
vn -0.03331335 0.9994006 0.009414646
vn 0 0 1
vn 0 0.9986792 0.05138132
vn 0 0 1
vn 0 0.9955246 0.0945027
vn 0 0 1
vn 0 0.9905574 0.1370989
vn 0 0 1
vn 0 0.9838585 0.1789482
vn 0 0 1
vn 0 0.9755339 0.2198486
vn 0 0 0.9999999
vn 0 0.9657103 0.2596221
vn 0 0 1
vn 0 0.9545292 0.2981175
vn 0 0 1
vn 0 0.9421428 0.3352117
vn 0 0 1
vn 0 0.9287086 0.3708104
vn 0 0 1
vn 0 0.9143844 0.404847
vn 0 0 1
vn 0 0.8993251 0.4372806
vn 0 0 1
vn 0 0.8836789 0.4680937
vn 0 0 1
vn 0 0.8675846 0.4972895
vn 0 0 1
vn 0 0.8511709 0.5248887
vn 0 0 0.9999999
vn 0 0.8345538 0.5509264
vn 0 0 1
vn 0 0.8178374 0.5754494
vn 0 0 1
vn 0 0.8011132 0.5985128
vn 0 0 1
vn 0 0.7844606 0.6201786
vn 0 0 1
vn 0 0.7679476 0.6405128
vn 0 0 1
vn 0 0.7516312 0.6595836
vn 0 0 1
vn 0 0.7355591 0.6774606
vn 0 0 1
vn 0 0.7197698 0.6942128
vn 0.7071068 0 0.7071068
vn 0.5777677 0.5790265 0.5752502

vt -6.2 -3
vt -6.2 -3
vt -6 -3
vt -6 -3
vt -5.8 -3
vt -5.8 -3
vt -5.6 -3
vt -5.6 -3
vt -5.4 -3
vt -5.4 -3
vt -5.2 -3
vt -5.2 -3
vt -5 -3
vt -5 -3
vt -4.8 -3
vt -4.8 -3
vt -4.6 -3
vt -4.6 -3
vt -4.4 -3
vt -4.4 -3
vt -4.2 -3
vt -4.2 -3
vt -4 -3
vt -4 -3
vt -3.8 -3
vt -3.8 -3
vt -3.6 -3
vt -3.6 -3
vt -3.4 -3
vt -3.4 -3
vt -3.2 -3
vt -3.2 -3
vt -3 -3
vt -3 -3
vt -2.8 -3
vt -2.8 -3
vt -2.6 -3
vt -2.6 -3
vt -2.4 -3
vt -2.4 -3
vt -2.2 -3
vt -2.2 -3
vt -2 -3
vt -2 -3
vt -1.8 -3
vt -1.8 -3
vt -1.6 -3
vt -1.6 -3
vt -1.4 -3
vt -1.4 -3
vt -1.2 -3
vt -1.2 -3
vt -1 -3
vt -1 -3
vt -0.8 -3
vt -0.8 -3
vt -0.6 -3
vt -0.6 -3
vt -0.4 -3
vt -0.4 -3
vt -0.2 -3
vt -0.2 -3
vt 0 -3
vt 0 -3
vt 0.2 -3
vt 0.2 -3
vt 0.4 -3
vt 0.4 -3
vt 0.6 -3
vt 0.6 -3
vt 0.8 -3
vt 0.8 -3
vt 1 -3
vt 1 -3
vt 1.2 -3
vt 1.2 -3
vt 1.4 -3
vt 1.4 -3
vt 1.6 -3
vt 1.6 -3
vt 1.8 -3
vt 1.8 -3
vt 2 -3
vt 2 -3
vt 2.2 -3
vt 2.2 -3
vt 2.4 -3
vt 2.4 -3
vt 2.6 -3
vt 2.6 -3
vt 2.8 -3
vt 2.8 -3
vt 3 -3
vt 3 -3
vt -6.2 -2.8
vt -6.2 -2.8
vt 3 -2.8
vt 3 -2.8
vt -6.2 -2.6
vt -6.2 -2.6
vt 3 -2.6
vt 3 -2.6
vt -6.2 -2.4
vt -6.2 -2.4
vt 3 -2.4
vt 3 -2.4
vt -6.2 -2.2
vt -6.2 -2.2
vt 3 -2.2
vt 3 -2.2
vt -6.2 -2
vt -6.2 -2
vt 3 -2
vt 3 -2
vt -6.2 -1.8
vt -6.2 -1.8
vt 3 -1.8
vt 3 -1.8
vt -6.2 -1.6
vt -6.2 -1.6
vt 3 -1.6
vt 3 -1.6
vt -6.2 -1.4
vt -6.2 -1.4
vt 3 -1.4
vt 3 -1.4
vt -6.2 -1.2
vt -6.2 -1.2
vt 3 -1.2
vt 3 -1.2
vt -6.2 -1
vt -6.2 -1
vt 3 -1
vt 3 -1
vt -6.2 -0.8
vt -6.2 -0.8
vt 3 -0.8
vt 3 -0.8
vt -6.2 -0.6
vt -6.2 -0.6
vt 3 -0.6
vt 3 -0.6
vt -6.2 -0.4
vt -6.2 -0.4
vt 3 -0.4
vt 3 -0.4
vt -6.2 -0.2
vt -6.2 -0.2
vt 3 -0.2
vt 3 -0.2
vt -6.2 0
vt -6.2 0
vt 3 0
vt 3 0
vt -6.2 0.2
vt -6.2 0.2
vt 3 0.2
vt 3 0.2
vt -6.2 0.4
vt -6.2 0.4
vt 3 0.4
vt 3 0.4
vt -6.2 0.6
vt -6.2 0.6
vt 3 0.6
vt 3 0.6
vt -6.2 0.8
vt -6.2 0.8
vt 3 0.8
vt 3 0.8
vt -6.2 1
vt -6.2 1
vt 3 1
vt 3 1
vt -6.2 1.2
vt -6.2 1.2
vt 3 1.2
vt 3 1.2
vt -6.2 1.4
vt -6.2 1.4
vt 3 1.4
vt 3 1.4
vt -6.2 1.6
vt -6.2 1.6
vt -6 1.6
vt -6 1.6
vt -5.8 1.6
vt -5.8 1.6
vt -5.6 1.6
vt -5.6 1.6
vt -5.4 1.6
vt -5.4 1.6
vt -5.2 1.6
vt -5.2 1.6
vt -5 1.6
vt -5 1.6
vt -4.8 1.6
vt -4.8 1.6
vt -4.6 1.6
vt -4.6 1.6
vt -4.4 1.6
vt -4.4 1.6
vt -4.2 1.6
vt -4.2 1.6
vt -4 1.6
vt -4 1.6
vt -3.8 1.6
vt -3.8 1.6
vt -3.6 1.6
vt -3.6 1.6
vt -3.4 1.6
vt -3.4 1.6
vt -3.2 1.6
vt -3.2 1.6
vt -3 1.6
vt -3 1.6
vt -2.8 1.6
vt -2.8 1.6
vt -2.6 1.6
vt -2.6 1.6
vt -2.4 1.6
vt -2.4 1.6
vt -2.2 1.6
vt -2.2 1.6
vt -2 1.6
vt -2 1.6
vt -1.8 1.6
vt -1.8 1.6
vt -1.6 1.6
vt -1.6 1.6
vt -1.4 1.6
vt -1.4 1.6
vt -1.2 1.6
vt -1.2 1.6
vt -1 1.6
vt -1 1.6
vt -0.8 1.6
vt -0.8 1.6
vt -0.6 1.6
vt -0.6 1.6
vt -0.4 1.6
vt -0.4 1.6
vt -0.2 1.6
vt -0.2 1.6
vt 0 1.6
vt 0 1.6
vt 0.2 1.6
vt 0.2 1.6
vt 0.4 1.6
vt 0.4 1.6
vt 0.6 1.6
vt 0.6 1.6
vt 0.8 1.6
vt 0.8 1.6
vt 1 1.6
vt 1 1.6
vt 1.2 1.6
vt 1.2 1.6
vt 1.4 1.6
vt 1.4 1.6
vt 1.6 1.6
vt 1.6 1.6
vt 1.8 1.6
vt 1.8 1.6
vt 2 1.6
vt 2 1.6
vt 2.2 1.6
vt 2.2 1.6
vt 2.4 1.6
vt 2.4 1.6
vt 2.6 1.6
vt 2.6 1.6
vt 2.8 1.6
vt 2.8 1.6
vt 3 1.6
vt 3 1.6

usemtl doubleSided
usemap doubleSided
f 4/4/4 3/3/3 2/2/2
f 2/2/2 3/3/3 1/1/1
f 6/6/6 5/5/5 4/4/4
f 4/4/4 5/5/5 3/3/3
f 8/8/8 7/7/7 6/6/6
f 6/6/6 7/7/7 5/5/5
f 10/10/10 9/9/9 8/8/8
f 8/8/8 9/9/9 7/7/7
f 12/12/12 11/11/11 10/10/10
f 10/10/10 11/11/11 9/9/9
f 14/14/14 13/13/13 12/12/12
f 12/12/12 13/13/13 11/11/11
f 16/16/16 15/15/15 14/14/14
f 14/14/14 15/15/15 13/13/13
f 18/18/18 17/17/17 16/16/16
f 16/16/16 17/17/17 15/15/15
f 20/20/20 19/19/19 18/18/18
f 18/18/18 19/19/19 17/17/17
f 22/22/22 21/21/21 20/20/20
f 20/20/20 21/21/21 19/19/19
f 24/24/24 23/23/23 22/22/22
f 22/22/22 23/23/23 21/21/21
f 26/26/26 25/25/25 24/24/24
f 24/24/24 25/25/25 23/23/23
f 28/28/28 27/27/27 26/26/26
f 26/26/26 27/27/27 25/25/25
f 30/30/30 29/29/29 28/28/28
f 28/28/28 29/29/29 27/27/27
f 32/32/32 31/31/31 30/30/30
f 30/30/30 31/31/31 29/29/29
f 34/34/34 33/33/33 32/32/32
f 32/32/32 33/33/33 31/31/31
f 36/36/36 35/35/35 34/34/34
f 34/34/34 35/35/35 33/33/33
f 38/38/38 37/37/37 36/36/36
f 36/36/36 37/37/37 35/35/35
f 40/40/40 39/39/39 38/38/38
f 38/38/38 39/39/39 37/37/37
f 42/42/42 41/41/41 40/40/40
f 40/40/40 41/41/41 39/39/39
f 44/44/44 43/43/43 42/42/42
f 42/42/42 43/43/43 41/41/41
f 46/46/46 45/45/45 44/44/44
f 44/44/44 45/45/45 43/43/43
f 48/48/48 47/47/47 46/46/46
f 46/46/46 47/47/47 45/45/45
f 50/50/50 49/49/49 48/48/48
f 48/48/48 49/49/49 47/47/47
f 52/52/52 51/51/51 50/50/50
f 50/50/50 51/51/51 49/49/49
f 54/54/54 53/53/53 52/52/52
f 52/52/52 53/53/53 51/51/51
f 56/56/56 55/55/55 54/54/54
f 54/54/54 55/55/55 53/53/53
f 58/58/58 57/57/57 56/56/56
f 56/56/56 57/57/57 55/55/55
f 60/60/60 59/59/59 58/58/58
f 58/58/58 59/59/59 57/57/57
f 62/62/62 61/61/61 60/60/60
f 60/60/60 61/61/61 59/59/59
f 64/64/64 63/63/63 62/62/62
f 62/62/62 63/63/63 61/61/61
f 66/66/66 65/65/65 64/64/64
f 64/64/64 65/65/65 63/63/63
f 68/68/68 67/67/67 66/66/66
f 66/66/66 67/67/67 65/65/65
f 70/70/70 69/69/69 68/68/68
f 68/68/68 69/69/69 67/67/67
f 72/72/72 71/71/71 70/70/70
f 70/70/70 71/71/71 69/69/69
f 74/74/74 73/73/73 72/72/72
f 72/72/72 73/73/73 71/71/71
f 76/76/76 75/75/75 74/74/74
f 74/74/74 75/75/75 73/73/73
f 78/78/78 77/77/77 76/76/76
f 76/76/76 77/77/77 75/75/75
f 80/80/80 79/79/79 78/78/78
f 78/78/78 79/79/79 77/77/77
f 82/82/82 81/81/81 80/80/80
f 80/80/80 81/81/81 79/79/79
f 84/84/84 83/83/83 82/82/82
f 82/82/82 83/83/83 81/81/81
f 86/86/86 85/85/85 84/84/84
f 84/84/84 85/85/85 83/83/83
f 88/88/88 87/87/87 86/86/86
f 86/86/86 87/87/87 85/85/85
f 90/90/90 89/89/89 88/88/88
f 88/88/88 89/89/89 87/87/87
f 92/92/92 91/91/91 90/90/90
f 90/90/90 91/91/91 89/89/89
f 94/94/94 93/93/93 92/92/92
f 92/92/92 93/93/93 91/91/91
f 96/96/96 2/2/2 95/95/95
f 2/2/2 1/1/1 95/95/95
f 98/98/98 94/94/94 97/97/97
f 94/94/94 93/93/93 97/97/97
f 100/100/100 96/96/96 99/99/99
f 96/96/96 95/95/95 99/99/99
f 102/102/102 98/98/98 101/101/101
f 98/98/98 97/97/97 101/101/101
f 104/104/104 100/100/100 103/103/103
f 100/100/100 99/99/99 103/103/103
f 106/106/106 102/102/102 105/105/105
f 102/102/102 101/101/101 105/105/105
f 108/108/108 104/104/104 107/107/107
f 104/104/104 103/103/103 107/107/107
f 110/110/110 106/106/106 109/109/109
f 106/106/106 105/105/105 109/109/109
f 112/112/112 108/108/108 111/111/111
f 108/108/108 107/107/107 111/111/111
f 114/114/114 110/110/110 113/113/113
f 110/110/110 109/109/109 113/113/113
f 116/116/116 112/112/112 115/115/115
f 112/112/112 111/111/111 115/115/115
f 118/118/118 114/114/114 117/117/117
f 114/114/114 113/113/113 117/117/117
f 120/120/120 116/116/116 119/119/119
f 116/116/116 115/115/115 119/119/119
f 122/122/122 118/118/118 121/121/121
f 118/118/118 117/117/117 121/121/121
f 124/124/124 120/120/120 123/123/123
f 120/120/120 119/119/119 123/123/123
f 126/126/126 122/122/122 125/125/125
f 122/122/122 121/121/121 125/125/125
f 128/128/128 124/124/124 127/127/127
f 124/124/124 123/123/123 127/127/127
f 130/130/130 126/126/126 129/129/129
f 126/126/126 125/125/125 129/129/129
f 132/132/132 128/128/128 131/131/131
f 128/128/128 127/127/127 131/131/131
f 134/134/134 130/130/130 133/133/133
f 130/130/130 129/129/129 133/133/133
f 136/136/136 132/132/132 135/135/135
f 132/132/132 131/131/131 135/135/135
f 138/138/138 134/134/134 137/137/137
f 134/134/134 133/133/133 137/137/137
f 140/140/140 136/136/136 139/139/139
f 136/136/136 135/135/135 139/139/139
f 142/142/142 138/138/138 141/141/141
f 138/138/138 137/137/137 141/141/141
f 144/144/144 140/140/140 143/143/143
f 140/140/140 139/139/139 143/143/143
f 146/146/146 142/142/142 145/145/145
f 142/142/142 141/141/141 145/145/145
f 148/148/148 144/144/144 147/147/147
f 144/144/144 143/143/143 147/147/147
f 150/150/150 146/146/146 149/149/149
f 146/146/146 145/145/145 149/149/149
f 152/152/152 148/148/148 151/151/151
f 148/148/148 147/147/147 151/151/151
f 154/154/154 150/150/150 153/153/153
f 150/150/150 149/149/149 153/153/153
f 156/156/156 152/152/152 155/155/155
f 152/152/152 151/151/151 155/155/155
f 158/158/158 154/154/154 157/157/157
f 154/154/154 153/153/153 157/157/157
f 160/160/160 156/156/156 159/159/159
f 156/156/156 155/155/155 159/159/159
f 162/162/162 158/158/158 161/161/161
f 158/158/158 157/157/157 161/161/161
f 164/164/164 160/160/160 163/163/163
f 160/160/160 159/159/159 163/163/163
f 166/166/166 162/162/162 165/165/165
f 162/162/162 161/161/161 165/165/165
f 168/168/168 164/164/164 167/167/167
f 164/164/164 163/163/163 167/167/167
f 170/170/170 166/166/166 169/169/169
f 166/166/166 165/165/165 169/169/169
f 172/172/172 168/168/168 171/171/171
f 168/168/168 167/167/167 171/171/171
f 174/174/174 170/170/170 173/173/173
f 170/170/170 169/169/169 173/173/173
f 176/176/176 172/172/172 175/175/175
f 172/172/172 171/171/171 175/175/175
f 178/178/178 174/174/174 177/177/177
f 174/174/174 173/173/173 177/177/177
f 180/180/180 176/176/176 179/179/179
f 176/176/176 175/175/175 179/179/179
f 182/182/182 178/178/178 181/181/181
f 178/178/178 177/177/177 181/181/181
f 184/184/184 180/180/180 183/183/183
f 180/180/180 179/179/179 183/183/183
f 186/186/186 4/4/4 184/184/184
f 4/4/4 2/2/2 184/184/184
f 186/186/186 184/184/184 185/185/185
f 184/184/184 183/183/183 185/185/185
f 188/188/188 6/6/6 186/186/186
f 6/6/6 4/4/4 186/186/186
f 188/188/188 186/186/186 187/187/187
f 186/186/186 185/185/185 187/187/187
f 190/190/190 8/8/8 188/188/188
f 8/8/8 6/6/6 188/188/188
f 190/190/190 188/188/188 189/189/189
f 188/188/188 187/187/187 189/189/189
f 192/192/192 10/10/10 190/190/190
f 10/10/10 8/8/8 190/190/190
f 192/192/192 190/190/190 191/191/191
f 190/190/190 189/189/189 191/191/191
f 194/194/194 12/12/12 192/192/192
f 12/12/12 10/10/10 192/192/192
f 194/194/194 192/192/192 193/193/193
f 192/192/192 191/191/191 193/193/193
f 196/196/196 14/14/14 194/194/194
f 14/14/14 12/12/12 194/194/194
f 196/196/196 194/194/194 195/195/195
f 194/194/194 193/193/193 195/195/195
f 198/198/198 16/16/16 196/196/196
f 16/16/16 14/14/14 196/196/196
f 198/198/198 196/196/196 197/197/197
f 196/196/196 195/195/195 197/197/197
f 200/200/200 18/18/18 198/198/198
f 18/18/18 16/16/16 198/198/198
f 200/200/200 198/198/198 199/199/199
f 198/198/198 197/197/197 199/199/199
f 202/202/202 20/20/20 200/200/200
f 20/20/20 18/18/18 200/200/200
f 202/202/202 200/200/200 201/201/201
f 200/200/200 199/199/199 201/201/201
f 204/204/204 22/22/22 202/202/202
f 22/22/22 20/20/20 202/202/202
f 204/204/204 202/202/202 203/203/203
f 202/202/202 201/201/201 203/203/203
f 206/206/206 24/24/24 204/204/204
f 24/24/24 22/22/22 204/204/204
f 206/206/206 204/204/204 205/205/205
f 204/204/204 203/203/203 205/205/205
f 208/208/208 26/26/26 206/206/206
f 26/26/26 24/24/24 206/206/206
f 208/208/208 206/206/206 207/207/207
f 206/206/206 205/205/205 207/207/207
f 210/210/210 28/28/28 208/208/208
f 28/28/28 26/26/26 208/208/208
f 210/210/210 208/208/208 209/209/209
f 208/208/208 207/207/207 209/209/209
f 212/212/212 30/30/30 210/210/210
f 30/30/30 28/28/28 210/210/210
f 212/212/212 210/210/210 211/211/211
f 210/210/210 209/209/209 211/211/211
f 214/214/214 32/32/32 212/212/212
f 32/32/32 30/30/30 212/212/212
f 214/214/214 212/212/212 213/213/213
f 212/212/212 211/211/211 213/213/213
f 216/216/216 34/34/34 214/214/214
f 34/34/34 32/32/32 214/214/214
f 216/216/216 214/214/214 215/215/215
f 214/214/214 213/213/213 215/215/215
f 218/218/218 36/36/36 216/216/216
f 36/36/36 34/34/34 216/216/216
f 218/218/218 216/216/216 217/217/217
f 216/216/216 215/215/215 217/217/217
f 220/220/220 38/38/38 218/218/218
f 38/38/38 36/36/36 218/218/218
f 220/220/220 218/218/218 219/219/219
f 218/218/218 217/217/217 219/219/219
f 222/222/222 40/40/40 220/220/220
f 40/40/40 38/38/38 220/220/220
f 222/222/222 220/220/220 221/221/221
f 220/220/220 219/219/219 221/221/221
f 224/224/224 42/42/42 222/222/222
f 42/42/42 40/40/40 222/222/222
f 224/224/224 222/222/222 223/223/223
f 222/222/222 221/221/221 223/223/223
f 226/226/226 44/44/44 224/224/224
f 44/44/44 42/42/42 224/224/224
f 226/226/226 224/224/224 225/225/225
f 224/224/224 223/223/223 225/225/225
f 228/228/228 46/46/46 226/226/226
f 46/46/46 44/44/44 226/226/226
f 228/228/228 226/226/226 227/227/227
f 226/226/226 225/225/225 227/227/227
f 230/230/230 48/48/48 228/228/228
f 48/48/48 46/46/46 228/228/228
f 230/230/230 228/228/228 229/229/229
f 228/228/228 227/227/227 229/229/229
f 232/232/232 50/50/50 230/230/230
f 50/50/50 48/48/48 230/230/230
f 232/232/232 231/231/231 230/230/230
f 230/230/230 231/231/231 229/229/229
f 234/234/234 52/52/52 232/232/232
f 52/52/52 50/50/50 232/232/232
f 234/234/234 233/233/233 232/232/232
f 232/232/232 233/233/233 231/231/231
f 236/236/236 54/54/54 234/234/234
f 54/54/54 52/52/52 234/234/234
f 236/236/236 235/235/235 234/234/234
f 234/234/234 235/235/235 233/233/233
f 238/238/238 56/56/56 236/236/236
f 56/56/56 54/54/54 236/236/236
f 238/238/238 237/237/237 236/236/236
f 236/236/236 237/237/237 235/235/235
f 240/240/240 58/58/58 238/238/238
f 58/58/58 56/56/56 238/238/238
f 240/240/240 239/239/239 238/238/238
f 238/238/238 239/239/239 237/237/237
f 242/242/242 60/60/60 240/240/240
f 60/60/60 58/58/58 240/240/240
f 242/242/242 241/241/241 240/240/240
f 240/240/240 241/241/241 239/239/239
f 244/244/244 62/62/62 242/242/242
f 62/62/62 60/60/60 242/242/242
f 244/244/244 243/243/243 242/242/242
f 242/242/242 243/243/243 241/241/241
f 246/246/246 64/64/64 244/244/244
f 64/64/64 62/62/62 244/244/244
f 246/246/246 245/245/245 244/244/244
f 244/244/244 245/245/245 243/243/243
f 248/248/248 66/66/66 246/246/246
f 66/66/66 64/64/64 246/246/246
f 248/248/248 247/247/247 246/246/246
f 246/246/246 247/247/247 245/245/245
f 250/250/250 68/68/68 248/248/248
f 68/68/68 66/66/66 248/248/248
f 250/250/250 249/249/249 248/248/248
f 248/248/248 249/249/249 247/247/247
f 252/252/252 70/70/70 250/250/250
f 70/70/70 68/68/68 250/250/250
f 252/252/252 251/251/251 250/250/250
f 250/250/250 251/251/251 249/249/249
f 254/254/254 72/72/72 252/252/252
f 72/72/72 70/70/70 252/252/252
f 254/254/254 253/253/253 252/252/252
f 252/252/252 253/253/253 251/251/251
f 256/256/256 74/74/74 254/254/254
f 74/74/74 72/72/72 254/254/254
f 256/256/256 255/255/255 254/254/254
f 254/254/254 255/255/255 253/253/253
f 258/258/258 76/76/76 256/256/256
f 76/76/76 74/74/74 256/256/256
f 258/258/258 257/257/257 256/256/256
f 256/256/256 257/257/257 255/255/255
f 260/260/260 78/78/78 258/258/258
f 78/78/78 76/76/76 258/258/258
f 260/260/260 259/259/259 258/258/258
f 258/258/258 259/259/259 257/257/257
f 262/262/262 80/80/80 260/260/260
f 80/80/80 78/78/78 260/260/260
f 262/262/262 261/261/261 260/260/260
f 260/260/260 261/261/261 259/259/259
f 264/264/264 82/82/82 262/262/262
f 82/82/82 80/80/80 262/262/262
f 264/264/264 263/263/263 262/262/262
f 262/262/262 263/263/263 261/261/261
f 266/266/266 84/84/84 264/264/264
f 84/84/84 82/82/82 264/264/264
f 266/266/266 265/265/265 264/264/264
f 264/264/264 265/265/265 263/263/263
f 268/268/268 86/86/86 266/266/266
f 86/86/86 84/84/84 266/266/266
f 268/268/268 267/267/267 266/266/266
f 266/266/266 267/267/267 265/265/265
f 270/270/270 88/88/88 268/268/268
f 88/88/88 86/86/86 268/268/268
f 270/270/270 269/269/269 268/268/268
f 268/268/268 269/269/269 267/267/267
f 272/272/272 90/90/90 270/270/270
f 90/90/90 88/88/88 270/270/270
f 272/272/272 271/271/271 270/270/270
f 270/270/270 271/271/271 269/269/269
f 274/274/274 92/92/92 272/272/272
f 92/92/92 90/90/90 272/272/272
f 274/274/274 273/273/273 272/272/272
f 272/272/272 273/273/273 271/271/271
f 276/276/276 94/94/94 274/274/274
f 94/94/94 92/92/92 274/274/274
f 276/276/276 182/182/182 275/275/275
f 182/182/182 181/181/181 275/275/275
f 276/276/276 275/275/275 274/274/274
f 274/274/274 275/275/275 273/273/273

UnityEngine.MonoBehaviour:print(Object)
integralRender:Update() (at Assets/scripts/integralRender.cs:290)
